<?xml version="1.0" encoding="UTF-8" standalone="no"?>
<!-- old school pixellated netscape broken image icon -->

<svg
   viewBox="0 0 14 16"
   version="1.1"
   id="svg17"
   sodipodi:docname="broken.svg"
   inkscape:version="1.3 (0e150ed, 2023-07-21)"
   xmlns:inkscape="http://www.inkscape.org/namespaces/inkscape"
   xmlns:sodipodi="http://sodipodi.sourceforge.net/DTD/sodipodi-0.dtd"
   xmlns="http://www.w3.org/2000/svg"
   xmlns:svg="http://www.w3.org/2000/svg">
  <defs
     id="defs17" />
  <sodipodi:namedview
     id="namedview17"
     pagecolor="#ffffff"
     bordercolor="#000000"
     borderopacity="0.25"
     inkscape:showpageshadow="2"
     inkscape:pageopacity="0.0"
     inkscape:pagecheckerboard="0"
     inkscape:deskcolor="#d1d1d1"
     inkscape:export-bgcolor="#ffffffff"
     inkscape:zoom="46.889004"
     inkscape:cx="4.3293733"
     inkscape:cy="4.7025951"
     inkscape:window-width="1728"
     inkscape:window-height="1056"
     inkscape:window-x="0"
     inkscape:window-y="33"
     inkscape:window-maximized="0"
     inkscape:current-layer="borders-and-backgrounds" />
  <g
     id="borders-and-backgrounds">
    <rect
       style="fill:#ffffff;stroke:#ffffff;stroke-width:1.27447;stroke-opacity:1"
       id="rect1"
       width="12.71808"
       height="14.723275"
       x="0.64146245"
       y="0.6375562" />
    <path
       d="M0,0 L10,0 L10,1 L1,1 L1,15 L2,15 L2,16 L0,16 Z"
       fill="black"
       id="path1" />
    <path
       d="M10,4 l4,0 l0,3 l-1,0 l0,-2 l-3,0 Z"
       fill="black"
       id="path2" />
    <path
       d="m 13.996094,16 v -6 h -1 v 5 H 7.9960937 v 1 z"
       fill="#000000"
       id="path3" />
    <path
       d="M12,14 l0,-3 l-1,0 l0,2 l-2,0 l0,1 Z"
       fill="#bcbcc3"
       id="path4" />
    <path
       d="M10,0 l1,0 l0,1 l1,0 l0,1 l1,0 l0,1 l1,0 l0,1 l-1,0 l0,-1 l-1,0 l0,-1 l-1,0 l0,2 l-1,0 Z"
       fill="#878787"
       id="path5" />
    <path
       d="M2,2 l8,0 l0,3 l2,0 l0,2 l-4,0 l0,5 l-2,0 l0,1 l-2,0 l0,1 l-2,0 Z"
       fill="#bcbcc3"
       id="path6" />
  </g>
  <g
     id="lefteye">
    <path
       d="M5,3 l2,0 l0,3 l-3,0 l0,-2 l1,0 l0,1 l1,0 l0,-1 l-1,0 Z"
       fill="#00891e"
       id="path7" />
    <path
       d="M5,4 l1,0 l0,1 l-1,0 Z"
       fill="#00f248"
       id="path8" />
    <path
       d="M7,4 l1,0 l0,2 l-1,0 l0,1 l-2,0 l0,-1 l2,0 Z"
       fill="black"
       id="path9" />
  </g>
  <g
     id="righteye">
    <path
       d="M8,7 l3,0 l0,2 l-1,0 l0,-1 l-1,0 l0,1 l1,0 l0,1 l-2,0 Z"
       fill="#0064fb"
       id="path10" />
    <path
       d="M9,8 l1,0 l0,1 l-1,0 Z"
       fill="#00fbfe"
       id="path11" />
    <path
       d="M10,9 l1,0 l0,1 l-1,0 Z"
       fill="#003293"
       id="path12" />
    <path
       d="M11,7 l1,0 l0,2 l-1,0 Z"
       fill="black"
       id="path13" />
    <path
       d="M8,10 l2,0 l0,1 l-2,0 Z"
       fill="black"
       id="path14" />
  </g>
  <g
     id="mouth">
    <path
       d="M3,8 l1,0 l0,1 l1,0 l0,1 l1,0 l0,1 l1,0 l0,1 l-1,0 l0,-1 l-1,0 l0,-1 l-1,0 l0,-1 l-1,0 Z"
       fill="#ff3900"
       id="path15" />
    <path
       d="M3,9 l1,0 l0,1 l1,0 l0,1 l1,0 l0,1 l-3,0 Z"
       fill="#f73ae1"
       id="path16" />
    <path
       d="M3,12 l3,0 l0,1 l-3,0 Z"
       fill="black"
       id="path17" />
  </g>
</svg>
